<svg xmlns="http://www.w3.org/2000/svg" width="700" height="394" viewBox="0 0 700 394"><rect width="100%" height="100%" fill="#1a1a2e"/><path fill="#9DFF20" d="M145.67 177.13v32.53h-6.08v-32.53zm11.95 32.53h-5.56v-23.09h3.4q1.08 0 1.41 1.02l.36 1.71q.61-.68 1.28-1.24.66-.56 1.41-.97.76-.4 1.62-.64.87-.24 1.9-.24 2.19 0 3.59 1.19 1.41 1.18 2.11 3.13.54-1.14 1.35-1.96t1.77-1.34q.97-.52 2.06-.77t2.2-.25q1.91 0 3.39.59 1.49.59 2.5 1.71 1.01 1.13 1.54 2.75.53 1.61.53 3.71v14.69h-5.56v-14.69q0-2.21-.96-3.32-.97-1.12-2.84-1.12-.85 0-1.58.3-.74.29-1.29.84t-.86 1.38q-.32.84-.32 1.92v14.69h-5.58v-14.69q0-2.32-.93-3.38-.94-1.06-2.74-1.06-1.21 0-2.26.6-1.04.6-1.94 1.63zm44.32-5.96v-3.9q-2.41.12-4.05.42-1.64.31-2.63.78t-1.42 1.1-.43 1.37q0 1.47.87 2.1t2.26.63q1.71 0 2.96-.62t2.44-1.88m-11.74-12.13-.99-1.78q3.98-3.64 9.58-3.64 2.03 0 3.62.66 1.6.67 2.7 1.85 1.11 1.18 1.68 2.82t.57 3.6v14.58h-2.52q-.78 0-1.21-.24-.43-.23-.68-.95l-.49-1.67q-.88.79-1.71 1.39-.83.59-1.73 1-.9.4-1.93.62-1.02.21-2.26.21-1.46 0-2.7-.39-1.24-.4-2.14-1.18-.9-.79-1.39-1.96-.5-1.17-.5-2.72 0-.88.3-1.75.29-.86.95-1.65.67-.79 1.72-1.49 1.06-.69 2.6-1.21t3.59-.85q2.05-.32 4.68-.39v-1.35q0-2.32-.99-3.43-.99-1.12-2.86-1.12-1.35 0-2.23.32-.89.31-1.57.71l-1.22.71q-.56.31-1.23.31-.59 0-.99-.3-.41-.3-.65-.71m30.82 5.98q1.04 0 1.8-.28.77-.28 1.27-.77.51-.5.77-1.19.26-.7.26-1.53 0-1.71-1.03-2.72-1.02-1-3.07-1t-3.07 1q-1.02 1.01-1.02 2.72 0 .81.26 1.5.25.7.76 1.21.51.5 1.28.78.78.28 1.79.28m6.28 13.14q0-.67-.41-1.1-.4-.42-1.1-.66t-1.63-.35-1.98-.17q-1.05-.05-2.16-.1t-2.17-.18q-.92.52-1.5 1.21-.57.7-.57 1.62 0 .61.3 1.14.31.53.97.91t1.72.6q1.06.21 2.59.21 1.55 0 2.68-.23 1.12-.24 1.85-.66.73-.41 1.07-.99.34-.57.34-1.25m-1.1-23.33h6.63v2.07q0 .99-1.19 1.22l-2.07.38q.47 1.19.47 2.61 0 1.71-.68 3.09-.69 1.39-1.9 2.36-1.22.96-2.87 1.49-1.66.53-3.57.53-.67 0-1.3-.07t-1.24-.18q-1.08.66-1.08 1.47 0 .69.64 1.02t1.7.46q1.06.14 2.41.17t2.76.14q1.42.12 2.77.4t2.41.89q1.06.6 1.7 1.65t.64 2.69q0 1.53-.75 2.97-.76 1.44-2.19 2.57-1.43 1.12-3.51 1.81-2.08.68-4.73.68-2.61 0-4.55-.5-1.93-.51-3.22-1.35-1.28-.85-1.91-1.95t-.63-2.3q0-1.62.98-2.71t2.69-1.74q-.92-.47-1.46-1.26t-.54-2.07q0-.52.19-1.07t.56-1.09.93-1.02q.57-.49 1.33-.87-1.75-.94-2.75-2.52-1.01-1.57-1.01-3.69 0-1.71.69-3.09.69-1.39 1.91-2.37 1.23-.97 2.91-1.49 1.67-.52 3.65-.52 1.49 0 2.79.3 1.31.31 2.39.89m14.53 8.1h10.49q0-1.08-.31-2.03-.3-.96-.91-1.68t-1.54-1.14q-.93-.41-2.17-.41-2.41 0-3.79 1.37-1.39 1.37-1.77 3.89m14.18 3.36h-14.29q.13 1.77.63 3.07.49 1.29 1.3 2.13.81.85 1.93 1.26 1.11.42 2.46.42t2.33-.31q.98-.32 1.71-.7t1.28-.7q.55-.31 1.07-.31.7 0 1.04.51l1.59 2.03q-.92 1.08-2.07 1.81-1.14.73-2.39 1.17t-2.54.62q-1.3.18-2.51.18-2.41 0-4.48-.8t-3.6-2.36q-1.53-1.57-2.41-3.87-.88-2.31-.88-5.35 0-2.36.77-4.44.76-2.08 2.19-3.62t3.49-2.44q2.06-.91 4.65-.91 2.18 0 4.02.7 1.85.7 3.18 2.04 1.32 1.34 2.08 3.28.75 1.95.75 4.45 0 1.26-.27 1.7t-1.03.44m21.21-11.23.39 1.82q.69-.7 1.47-1.29.78-.6 1.64-1.02.87-.41 1.86-.65t2.16-.24q1.89 0 3.35.65 1.46.64 2.44 1.8t1.49 2.76q.5 1.61.5 3.55v14.69h-5.55v-14.69q0-2.12-.97-3.28t-2.95-1.16q-1.44 0-2.7.66-1.26.65-2.38 1.77v16.7h-5.56v-23.09h3.4q1.08 0 1.41 1.02m30.78-1.38q2.57 0 4.67.84 2.11.83 3.6 2.36 1.5 1.53 2.31 3.73.81 2.21.81 4.93 0 2.75-.81 4.95-.81 2.21-2.31 3.76-1.49 1.55-3.6 2.39-2.1.83-4.67.83-2.58 0-4.7-.83-2.11-.84-3.61-2.39t-2.32-3.76q-.82-2.2-.82-4.95 0-2.72.82-4.93.82-2.2 2.32-3.73t3.61-2.36q2.12-.84 4.7-.84m0 19.51q2.88 0 4.27-1.93 1.38-1.94 1.38-5.67 0-3.74-1.38-5.69-1.39-1.96-4.27-1.96-2.92 0-4.33 1.97-1.4 1.97-1.4 5.68t1.4 5.66q1.41 1.94 4.33 1.94m20.46-18.13.38 1.82q.7-.7 1.47-1.29.78-.6 1.65-1.02.86-.41 1.85-.65t2.16-.24q1.89 0 3.35.65 1.47.64 2.45 1.8.97 1.16 1.48 2.76.51 1.61.51 3.55v14.69h-5.56v-14.69q0-2.12-.97-3.28t-2.95-1.16q-1.44 0-2.7.66-1.26.65-2.38 1.77v16.7h-5.56v-23.09h3.4q1.08 0 1.42 1.02m45.99 15.23v-10.35q-.95-1.15-2.06-1.62-1.12-.47-2.4-.47-1.26 0-2.27.47t-1.73 1.43q-.72.95-1.11 2.43-.38 1.47-.38 3.48 0 2.02.33 3.43.32 1.4.93 2.29t1.49 1.28q.87.4 1.95.4 1.74 0 2.95-.72 1.22-.72 2.3-2.05m0-26.6h5.55v33.44h-3.39q-1.11 0-1.4-1.01l-.47-2.23q-1.4 1.6-3.21 2.59t-4.22.99q-1.89 0-3.46-.79-1.58-.79-2.71-2.28-1.14-1.5-1.76-3.7-.62-2.21-.62-5.04 0-2.57.7-4.78.7-2.2 2-3.82 1.31-1.62 3.13-2.53t4.1-.91q1.93 0 3.3.61 1.38.6 2.46 1.64zm11.22 10.35h5.58v23.09h-5.58zm6.35-6.72q0 .72-.29 1.35-.3.63-.78 1.1t-1.14.75q-.65.29-1.39.29-.72 0-1.36-.29-.64-.28-1.12-.75-.47-.47-.75-1.1t-.28-1.35q0-.74.28-1.4.28-.65.75-1.12.48-.47 1.12-.76.64-.28 1.36-.28.74 0 1.39.28.66.29 1.14.76t.78 1.12q.29.66.29 1.4m20.25 9.22-1.26 2q-.23.37-.47.51-.25.15-.63.15-.41 0-.87-.23-.46-.22-1.07-.5-.61-.29-1.38-.51-.78-.22-1.84-.22-1.64 0-2.57.69-.94.7-.94 1.82 0 .75.49 1.25.48.51 1.28.89.8.39 1.81.69t2.06.66 2.06.82 1.81 1.17 1.28 1.7q.49.99.49 2.39 0 1.66-.6 3.07t-1.77 2.43-2.89 1.6q-1.72.57-3.97.57-1.19 0-2.33-.21-1.13-.22-2.18-.6t-1.93-.9q-.89-.52-1.57-1.13l1.28-2.11q.25-.38.59-.58.34-.21.85-.21.52 0 .98.3.46.29 1.07.62.61.34 1.43.64.82.29 2.08.29.99 0 1.7-.24.71-.23 1.17-.62.46-.38.68-.89.21-.5.21-1.04 0-.81-.48-1.33-.49-.52-1.29-.9t-1.82-.69q-1.02-.3-2.09-.66t-2.09-.84q-1.03-.49-1.83-1.23t-1.28-1.82-.48-2.61q0-1.42.56-2.7t1.65-2.24 2.73-1.53q1.63-.58 3.76-.58 2.39 0 4.35.79 1.95.79 3.26 2.07m9.99 4.25v10.36q.94 1.14 2.06 1.61 1.11.48 2.42.48 1.26 0 2.27-.48 1.01-.47 1.72-1.43.71-.97 1.09-2.45.38-1.47.38-3.47 0-2.03-.32-3.43-.33-1.41-.94-2.29-.6-.87-1.47-1.28t-1.97-.41q-1.73 0-2.95.74-1.21.73-2.29 2.05m-.74-5.73.45 2.14q1.41-1.6 3.21-2.59t4.23-.99q1.89 0 3.46.79 1.56.78 2.7 2.28 1.13 1.49 1.75 3.69.62 2.19.62 5.03 0 2.59-.7 4.79-.69 2.21-1.99 3.83-1.29 1.62-3.12 2.53-1.84.91-4.11.91-1.94 0-3.31-.6-1.37-.59-2.45-1.65v9.45h-5.56v-30.63h3.4q1.08 0 1.42 1.02m30.96-1.38q2.56 0 4.67.84 2.1.83 3.6 2.36 1.49 1.53 2.3 3.73.81 2.21.81 4.93 0 2.75-.81 4.95-.81 2.21-2.3 3.76-1.5 1.55-3.6 2.39-2.11.83-4.67.83-2.59 0-4.71-.83-2.11-.84-3.61-2.39-1.49-1.55-2.31-3.76-.83-2.2-.83-4.95 0-2.72.83-4.93.82-2.2 2.31-3.73 1.5-1.53 3.61-2.36 2.12-.84 4.71-.84m0 19.51q2.88 0 4.26-1.93 1.38-1.94 1.38-5.67 0-3.74-1.38-5.69-1.38-1.96-4.26-1.96-2.93 0-4.33 1.97-1.41 1.97-1.41 5.68t1.41 5.66q1.4 1.94 4.33 1.94m20.45-18.13.38 1.82q.7-.7 1.48-1.29.77-.6 1.64-1.02.86-.41 1.85-.65t2.16-.24q1.89 0 3.36.65 1.46.64 2.44 1.8t1.48 2.76q.51 1.61.51 3.55v14.69h-5.56v-14.69q0-2.12-.97-3.28-.96-1.16-2.94-1.16-1.44 0-2.7.66-1.26.65-2.39 1.77v16.7h-5.56v-23.09h3.4q1.08 0 1.42 1.02m20.74-1.02h5.58v23.09h-5.58zm6.35-6.72q0 .72-.29 1.35-.3.63-.78 1.1t-1.14.75q-.65.29-1.39.29-.72 0-1.36-.29-.64-.28-1.12-.75-.47-.47-.75-1.1t-.28-1.35q0-.74.28-1.4.28-.65.75-1.12.48-.47 1.12-.76.64-.28 1.36-.28.74 0 1.39.28.66.29 1.14.76t.78 1.12q.29.66.29 1.4m10.46 13.47v10.36q.95 1.14 2.06 1.61 1.11.48 2.35.48 1.28 0 2.31-.46 1.02-.46 1.74-1.44t1.1-2.5q.39-1.52.39-3.63 0-3.81-1.26-5.51t-3.63-1.7q-1.59 0-2.79.74-1.19.73-2.27 2.05m0-17.1v13.19q1.4-1.46 3.1-2.33 1.69-.87 3.88-.87 2 0 3.61.79t2.74 2.26q1.14 1.48 1.75 3.57.6 2.09.6 4.7 0 2.82-.69 5.11-.7 2.3-1.99 3.93-1.3 1.63-3.12 2.53t-4.05.9q-1.08 0-1.96-.22-.88-.21-1.62-.59t-1.36-.94q-.62-.55-1.18-1.22l-.25 1.55q-.13.59-.46.83-.33.25-.89.25h-3.67v-33.44zm20.05 0h5.56v33.44h-5.56zm15.5 19.24h10.49q0-1.08-.31-2.03-.3-.96-.91-1.68t-1.54-1.14q-.93-.41-2.17-.41-2.41 0-3.79 1.37-1.39 1.37-1.77 3.89m14.18 3.36h-14.29q.13 1.77.63 3.07.49 1.29 1.3 2.13.81.85 1.93 1.26 1.11.42 2.46.42t2.33-.31q.98-.32 1.71-.7t1.28-.7q.55-.31 1.07-.31.7 0 1.04.51l1.59 2.03q-.92 1.08-2.07 1.81-1.14.73-2.39 1.17t-2.55.62q-1.29.18-2.5.18-2.41 0-4.48-.8t-3.6-2.36q-1.53-1.57-2.41-3.87-.88-2.31-.88-5.35 0-2.36.77-4.44.76-2.08 2.19-3.62t3.49-2.44q2.06-.91 4.65-.91 2.18 0 4.02.7 1.85.7 3.18 2.04 1.32 1.34 2.08 3.28.75 1.95.75 4.45 0 1.26-.27 1.7t-1.03.44"/></svg>